<svg xmlns="http://www.w3.org/2000/svg" viewBox="0 0 119.46 69.26"><defs><style>.cls-1,.cls-2{fill:#fff;}.cls-2{fill-rule:evenodd;}</style></defs><g id="Calque_2" data-name="Calque 2"><g id="Calque_1-2" data-name="Calque 1"><path class="cls-1" d="M42.54,48.16l-6.43,21H31.73l-3.91-13c-.07-.2-.14-.46-.21-.7s-.14-.51-.21-.78c-.06.27-.13.51-.2.75s-.15.54-.21.74l-4,13H18.64l-3.37-11-1.06-3.46h0l-.06-.19-.5-1.63-.71-2.34-.62-2-.11-.36h0L12,47.24a15.65,15.65,0,0,0-1.63-4.19.48.48,0,0,0-.28-.2c0,.06,0,.11.07.17a2.41,2.41,0,0,1,.21,1,1.27,1.27,0,0,1,0,.28A2.45,2.45,0,0,1,9,46.19l-.32.13a2.7,2.7,0,0,1-.7.12H7.88A2.45,2.45,0,0,1,5.43,44a2.64,2.64,0,0,1,0-.28,2.37,2.37,0,0,1,.67-1.41A1.67,1.67,0,0,1,6.43,42a2.37,2.37,0,0,1,1.28-.47h0A11.73,11.73,0,0,1,9,41.47,8.7,8.7,0,0,1,17.29,47l-.06,0a0,0,0,0,1,0,0L17.3,47l.35,1.33L18,49.57l2.77,10.54c.09.35.19.73.28,1.13a11.79,11.79,0,0,1,.22,1.26c.09-.45.2-.87.31-1.26s.22-.77.33-1.12l3.37-10.87a1.61,1.61,0,0,1,.55-.75,1.69,1.69,0,0,1,1-.34h1.43a1.83,1.83,0,0,1,1,.3,1.39,1.39,0,0,1,.56.78l3.35,10.87c.11.33.22.69.33,1.06s.22.79.3,1.22c.07-.42.16-.82.24-1.21s.16-.73.25-1.06l2.86-10.87a1.33,1.33,0,0,1,.54-.75,1.7,1.7,0,0,1,1-.34Z"/><path class="cls-1" d="M18,49.57a9.12,9.12,0,0,1-4.31,3.32l-.71-2.34-.62-2-.11-.36h0L12,47.24a15.65,15.65,0,0,0-1.63-4.19.48.48,0,0,0-.28-.2c0,.06,0,.11.07.17a2.41,2.41,0,0,1,.21,1,1.27,1.27,0,0,1,0,.28A2.45,2.45,0,0,1,9,46.19l-.32.13a2.7,2.7,0,0,1-.7.12H7.88A2.45,2.45,0,0,1,5.43,44a2.64,2.64,0,0,1,0-.28,2.37,2.37,0,0,1,.67-1.41A1.67,1.67,0,0,1,6.43,42a2.37,2.37,0,0,1,1.28-.47h0A11.73,11.73,0,0,1,9,41.47,8.7,8.7,0,0,1,17.29,47l-.06,0a0,0,0,0,1,0,0L17.3,47l.35,1.33Z"/><path class="cls-2" d="M103.78,24.49a2.24,2.24,0,0,0-4,1.9h0l-2.2,1.27a1.07,1.07,0,0,0-.71-.24,1.17,1.17,0,0,0-.74.27h0l-13.76-8a.53.53,0,0,0,0-.12,1.18,1.18,0,0,0-2.35,0s0,0,0,.06l-2.94,1.69V18A1.15,1.15,0,0,0,77.83,17a1.17,1.17,0,0,0-1.17-1.17,1.09,1.09,0,0,0-.54.15L62.5,8.06s0-.05,0-.08a1.17,1.17,0,0,0-.77-1.09V4.45a2.24,2.24,0,1,0-.8,0V6.89a1.16,1.16,0,0,0-.74,1L46,16a1.16,1.16,0,1,0-1,2.07v3.32l-2.82-1.63a.53.53,0,0,0,0-.12,1.17,1.17,0,0,0-2.34,0s0,0,0,.06L26.11,27.61a1.15,1.15,0,0,0-.64-.19,1.11,1.11,0,0,0-.77.3l-2-1.2h0a2.22,2.22,0,1,0-.41.72h0l2.08,1.21a.34.34,0,0,0,0,.15,1.17,1.17,0,0,0,.45.91s0,0,.05,0a1.23,1.23,0,0,0,.67.21h.14a1,1,0,0,0,.57-.22l20.5,12h0a1.76,1.76,0,0,0-.11.41v0s0,0,0,.09a2.16,2.16,0,0,0,0,.62.81.81,0,0,0,0,.17H75.77c.06-.69.08-.62.08-.78s0-.06,0-.08a3.46,3.46,0,0,0-.14-.62h0L96.06,29.48a.69.69,0,0,0,.31.18l.06,0a.87.87,0,0,0,.4.08,1,1,0,0,0,.33-.05h.07A1.2,1.2,0,0,0,98,28.6a.83.83,0,0,0,0-.22v0l2.17-1.26h0a2.24,2.24,0,0,0,3.63-2.6ZM51,42A.64.64,0,0,0,51,42v-.07a2.24,2.24,0,0,0-3.91-1.1h0L26.62,28.84a1,1,0,0,0,0-.24.88.88,0,0,0-.07-.33h0l13.66-7.84a1.16,1.16,0,0,0,.84.36,1.11,1.11,0,0,0,.79-.32L45,22.3V34a1.17,1.17,0,0,0,.38,2.27,1.2,1.2,0,0,0,.67-.23l10.42,5.61.07,0V42Zm5.56-12.3v11l-.07,0-10-5.37a.93.93,0,0,0,.05-.24A1.18,1.18,0,0,0,45.84,34V22.76l9.75,5.64a1.62,1.62,0,0,0,0,.19A1.17,1.17,0,0,0,56.58,29.74ZM58.85,42l-.18-.1,0,0-1-.53-.29-.16V29.54a1.16,1.16,0,0,0-.66-2.12,1.12,1.12,0,0,0-.73.28L45.84,21.83V18A1.18,1.18,0,0,0,46.59,17a1.07,1.07,0,0,0-.07-.32l13.89-8a1.1,1.1,0,0,0,.53.42V32.52a2.24,2.24,0,0,0,0,4.41V42Zm2.89,0V36.93a2.24,2.24,0,0,0,0-4.41V9.08a1.21,1.21,0,0,0,.43-.27l13.4,7.75a1.1,1.1,0,0,0-.08.4,1.16,1.16,0,0,0,.8,1.09v3.78l-10.1,5.79a1.14,1.14,0,0,0-1.78,1,1.15,1.15,0,0,0,.92,1.12V41.24l-.21.13-.89.53,0,0L64,42Zm14.55-8a1.18,1.18,0,0,0-.8,1.1,1.16,1.16,0,0,0,0,.18h0l-9.31,5.42-.06,0V29.61a1.15,1.15,0,0,0,.62-1,1.2,1.2,0,0,0-.06-.32l9.6-5.51Zm-1,6.61h0a2.21,2.21,0,0,0-2.8-.45A2.24,2.24,0,0,0,71.38,42s0,0,0,.08H66.13v-.33l.06,0L75.91,36h0a1.11,1.11,0,0,0,.74.29A1.17,1.17,0,0,0,77.08,34V22.31l3.27-1.88a1.16,1.16,0,0,0,.84.36,1.13,1.13,0,0,0,.79-.32l13.7,7.92h0a.49.49,0,0,0,0,.21.47.47,0,0,0,0,.16Z"/><path class="cls-1" d="M8.64,46.32a2.7,2.7,0,0,1-.7.12A3.94,3.94,0,0,1,8.64,46.32Z"/><path class="cls-1" d="M17.65,48.36a9.1,9.1,0,0,1-2.41.32,9.22,9.22,0,0,1-3-.51h0L12,47.24a15.65,15.65,0,0,0-1.63-4.19.48.48,0,0,0-.28-.2c0,.06,0,.11.07.17a2.41,2.41,0,0,1,.21,1,1.27,1.27,0,0,1,0,.28A2.45,2.45,0,0,1,9,46.19,9.06,9.06,0,0,1,6.43,42a2.37,2.37,0,0,1,1.28-.47h0A11.73,11.73,0,0,1,9,41.47,8.7,8.7,0,0,1,17.29,47l-.06,0a0,0,0,0,1,0,0L17.3,47Z"/><path class="cls-1" d="M15.4,44.09A9.14,9.14,0,0,1,12,47.24a15.65,15.65,0,0,0-1.63-4.19.48.48,0,0,0-.28-.2c0,.06,0,.11.07.17a2.41,2.41,0,0,1,.21,1,1.27,1.27,0,0,1,0,.28A2.45,2.45,0,0,1,9,46.19l-.32.13a2.7,2.7,0,0,1-.7.12H7.88A2.45,2.45,0,0,1,5.43,44a2.64,2.64,0,0,1,0-.28,2.37,2.37,0,0,1,.67-1.41A1.67,1.67,0,0,1,6.43,42a2.37,2.37,0,0,1,1.28-.47h0A11.73,11.73,0,0,1,9,41.47,8.83,8.83,0,0,1,15.4,44.09Z"/><path class="cls-1" d="M61.19,66.35a9.2,9.2,0,0,1-1.37,1.2,8,8,0,0,1-1.62.92,9.26,9.26,0,0,1-1.93.58,11.8,11.8,0,0,1-2.31.21,9.85,9.85,0,0,1-3.85-.73,8.49,8.49,0,0,1-3-2.09,9.37,9.37,0,0,1-2-3.27,12.2,12.2,0,0,1-.7-4.26,11.79,11.79,0,0,1,.72-4.2,9.57,9.57,0,0,1,2-3.27,9,9,0,0,1,3.13-2.11,10.43,10.43,0,0,1,4-.75,11.49,11.49,0,0,1,2,.16,8.83,8.83,0,0,1,1.7.48,7.55,7.55,0,0,1,1.5.76A11,11,0,0,1,61,51l-.44.64a.42.42,0,0,1-.36.17.65.65,0,0,1-.33-.15l-.5-.37c-.21-.15-.46-.31-.75-.49a7.12,7.12,0,0,0-1-.48A8.7,8.7,0,0,0,56.15,50a9.65,9.65,0,0,0-1.79-.15,8.9,8.9,0,0,0-3.39.63,7.56,7.56,0,0,0-2.65,1.82,8.17,8.17,0,0,0-1.74,2.86A10.63,10.63,0,0,0,46,58.91a11.21,11.21,0,0,0,.61,3.84,8.41,8.41,0,0,0,1.7,2.85,7.42,7.42,0,0,0,2.57,1.78,8.06,8.06,0,0,0,3.21.62A11.19,11.19,0,0,0,56,67.86a7.36,7.36,0,0,0,1.57-.43,6.73,6.73,0,0,0,1.33-.7,9.52,9.52,0,0,0,1.21-1l.14-.09a.24.24,0,0,1,.15,0,.35.35,0,0,1,.24.1Z"/><path class="cls-1" d="M83.14,54.67a9.47,9.47,0,0,0-2-3.26,8.4,8.4,0,0,0-3-2.09,10,10,0,0,0-3.93-.74,10.07,10.07,0,0,0-3.9.74,8.82,8.82,0,0,0-3.05,2.09,9.57,9.57,0,0,0-2,3.26,13.08,13.08,0,0,0,0,8.5,9.57,9.57,0,0,0,2,3.26,8.67,8.67,0,0,0,3.05,2.08,10.73,10.73,0,0,0,7.83,0,8.63,8.63,0,0,0,3-2.08,9.57,9.57,0,0,0,2-3.26,13.25,13.25,0,0,0,0-8.5Zm-1.4,8.06a8.27,8.27,0,0,1-1.66,2.85,6.91,6.91,0,0,1-2.56,1.78,9.17,9.17,0,0,1-6.63,0,7.2,7.2,0,0,1-2.57-1.78,8.13,8.13,0,0,1-1.67-2.85,12.4,12.4,0,0,1,0-7.62,8.09,8.09,0,0,1,1.67-2.86,7.23,7.23,0,0,1,2.57-1.79,9.17,9.17,0,0,1,6.63,0,6.93,6.93,0,0,1,2.56,1.79,8.22,8.22,0,0,1,1.66,2.86,12.8,12.8,0,0,1,0,7.62Z"/><path class="cls-1" d="M96.23,60.64,96,60.37a2.38,2.38,0,0,0-.61-.65,8.21,8.21,0,0,0,2.39-.61,6,6,0,0,0,1.8-1.18,4.93,4.93,0,0,0,1.16-1.67,5.2,5.2,0,0,0,.39-1.79c0-.11,0-.2,0-.31a4.65,4.65,0,0,0-1.73-3.92C98.26,49.33,96.53,49,94.18,49H89.11V69.2H90.3V60.07h2.82a2.17,2.17,0,0,1,.87.06,1.17,1.17,0,0,1,.53.35l.29.37L101,68.71a1.71,1.71,0,0,0,.33.33.87.87,0,0,0,.39.16H103Zm-2.25-1H90.26V50.15h4.41a6.27,6.27,0,0,1,3.63,1,3.53,3.53,0,0,1,1.41,3.1c0,.18,0,.36,0,.52v.08a4.66,4.66,0,0,1-.39,1.95,4.52,4.52,0,0,1-1.13,1.55,5.38,5.38,0,0,1-1.79,1A7.48,7.48,0,0,1,94,59.68Z"/><path class="cls-1" d="M117.65,50.44c-1.21-1-3-1.49-5.37-1.49H107V69.21h1.59V60.87h3.71a9.28,9.28,0,0,0,3-.44,6.57,6.57,0,0,0,2.26-1.24A5.49,5.49,0,0,0,119,57.27a6,6,0,0,0,.49-2.42A5.47,5.47,0,0,0,117.65,50.44Zm0,6.32a4.66,4.66,0,0,1-1.13,1.55,5.29,5.29,0,0,1-1.79,1,7.22,7.22,0,0,1-2.41.36h-3.71V50.15h3.71a6.38,6.38,0,0,1,4.28,1.16,4.31,4.31,0,0,1,1.44,3.5A4.85,4.85,0,0,1,117.61,56.76Z"/><path class="cls-1" d="M10.49,48.16V61.49c0,.21,0,.41,0,.61A11.07,11.07,0,0,1,10,64.66a6.71,6.71,0,0,1-1.35,2.45A6.05,6.05,0,0,1,6.4,68.7a8.06,8.06,0,0,1-3.13.56c-.55,0-1.09,0-1.61-.08A12.86,12.86,0,0,1,0,68.89l.26-2.81a.79.79,0,0,1,.29-.6,1.06,1.06,0,0,1,.74-.23,2.48,2.48,0,0,1,.6.08,4.16,4.16,0,0,0,.85.07A3.53,3.53,0,0,0,4,65.21a1.93,1.93,0,0,0,.86-.64,3.09,3.09,0,0,0,.42-1.18,8.37,8.37,0,0,0,.08-1.81V48.16Z"/><path class="cls-1" d="M10.49,48.16V59.9c0,.21,0,.42,0,.62a9.07,9.07,0,0,1-5.14-.82V48.16Z"/><path class="cls-1" d="M10.49,48.16v8.32a9.11,9.11,0,0,1-4.78,1.34H5.33V48.16Z"/><path class="cls-1" d="M10.49,48.16v8A9,9,0,0,1,5.33,54V48.16Z"/><path class="cls-1" d="M60.62,65.73l.57.62a9.2,9.2,0,0,1-1.37,1.2,8,8,0,0,1-1.62.92,9.26,9.26,0,0,1-1.93.58,11.8,11.8,0,0,1-2.31.21,9.85,9.85,0,0,1-3.85-.73,8.49,8.49,0,0,1-3-2.09,9.37,9.37,0,0,1-2-3.27,12.2,12.2,0,0,1-.7-4.26,11.79,11.79,0,0,1,.72-4.2,9.57,9.57,0,0,1,2-3.27,9,9,0,0,1,3.13-2.11,10.43,10.43,0,0,1,4-.75,11.49,11.49,0,0,1,2,.16,8.83,8.83,0,0,1,1.7.48,7.55,7.55,0,0,1,1.5.76A11,11,0,0,1,61,51l-.44.64a.42.42,0,0,1-.36.17.65.65,0,0,1-.33-.15l-.5-.37c-.21-.15-.46-.31-.75-.49a7.12,7.12,0,0,0-1-.48A8.7,8.7,0,0,0,56.15,50a9.65,9.65,0,0,0-1.79-.15,8.9,8.9,0,0,0-3.39.63,7.56,7.56,0,0,0-2.65,1.82,8.17,8.17,0,0,0-1.74,2.86A10.63,10.63,0,0,0,46,58.91a11.21,11.21,0,0,0,.61,3.84,8.41,8.41,0,0,0,1.7,2.85,7.42,7.42,0,0,0,2.57,1.78,8.06,8.06,0,0,0,3.21.62A11.19,11.19,0,0,0,56,67.86a7.36,7.36,0,0,0,1.57-.43,6.73,6.73,0,0,0,1.33-.7,9.52,9.52,0,0,0,1.21-1l.14-.09a.24.24,0,0,1,.15,0A.35.35,0,0,1,60.62,65.73Z"/><path class="cls-1" d="M83.14,54.67a9.47,9.47,0,0,0-2-3.26,8.4,8.4,0,0,0-3-2.09,10,10,0,0,0-3.93-.74,10.07,10.07,0,0,0-3.9.74,8.82,8.82,0,0,0-3.05,2.09,9.57,9.57,0,0,0-2,3.26,13.08,13.08,0,0,0,0,8.5,9.57,9.57,0,0,0,2,3.26,8.67,8.67,0,0,0,3.05,2.08,10.73,10.73,0,0,0,7.83,0,8.63,8.63,0,0,0,3-2.08,9.57,9.57,0,0,0,2-3.26,13.25,13.25,0,0,0,0-8.5Zm-1.4,8.06a8.27,8.27,0,0,1-1.66,2.85,6.91,6.91,0,0,1-2.56,1.78,9.17,9.17,0,0,1-6.63,0,7.2,7.2,0,0,1-2.57-1.78,8.13,8.13,0,0,1-1.67-2.85,12.4,12.4,0,0,1,0-7.62,8.09,8.09,0,0,1,1.67-2.86,7.23,7.23,0,0,1,2.57-1.79,9.17,9.17,0,0,1,6.63,0,6.93,6.93,0,0,1,2.56,1.79,8.22,8.22,0,0,1,1.66,2.86,12.8,12.8,0,0,1,0,7.62Z"/><path class="cls-1" d="M96.23,60.64,96,60.37a2.38,2.38,0,0,0-.61-.65,8.21,8.21,0,0,0,2.39-.61,6,6,0,0,0,1.8-1.18,4.93,4.93,0,0,0,1.16-1.67,5.2,5.2,0,0,0,.39-1.79c0-.11,0-.2,0-.31a4.65,4.65,0,0,0-1.73-3.92C98.26,49.33,96.53,49,94.18,49H89.11V69.2H90.3V60.07h2.82a2.17,2.17,0,0,1,.87.06,1.17,1.17,0,0,1,.53.35l.29.37L101,68.71a1.71,1.71,0,0,0,.33.33.87.87,0,0,0,.39.16H103Zm-2.25-1H90.26V50.15h4.41a6.27,6.27,0,0,1,3.63,1,3.53,3.53,0,0,1,1.41,3.1c0,.18,0,.36,0,.52v.08a4.66,4.66,0,0,1-.39,1.95,4.52,4.52,0,0,1-1.13,1.55,5.38,5.38,0,0,1-1.79,1A7.48,7.48,0,0,1,94,59.68Z"/><path class="cls-1" d="M117.65,50.44c-1.21-1-3-1.49-5.37-1.49H107V69.21h1.59V60.87h3.71a9.28,9.28,0,0,0,3-.44,6.57,6.57,0,0,0,2.26-1.24A5.49,5.49,0,0,0,119,57.27a6,6,0,0,0,.49-2.42A5.47,5.47,0,0,0,117.65,50.44Zm0,6.32a4.66,4.66,0,0,1-1.13,1.55,5.29,5.29,0,0,1-1.79,1,7.22,7.22,0,0,1-2.41.36h-3.71V50.15h3.71a6.38,6.38,0,0,1,4.28,1.16,4.31,4.31,0,0,1,1.44,3.5A4.85,4.85,0,0,1,117.61,56.76Z"/><path class="cls-1" d="M101.14,54.47a5.28,5.28,0,0,0-1.8-4c-1.17-1-2.88-1.46-5.16-1.49h-5.5V69.2h1.58V60.87H94l.83,0a8,8,0,0,0,1.42-.21,5,5,0,0,0,.75-.22,6.48,6.48,0,0,0,2.26-1.23,5.49,5.49,0,0,0,1.41-1.91,5.78,5.78,0,0,0,.5-2.43C101.15,54.72,101.15,54.59,101.14,54.47ZM94,59.68H90.26V50.15h4.41a6.27,6.27,0,0,1,3.63,1,3.53,3.53,0,0,1,1.41,3.1c0,.18,0,.36,0,.52v.08a4.66,4.66,0,0,1-.39,1.95,4.52,4.52,0,0,1-1.13,1.55,5.38,5.38,0,0,1-1.79,1A7.48,7.48,0,0,1,94,59.68Z"/></g></g></svg>